<?xml version="1.0" standalone="no"?>
<!DOCTYPE svg PUBLIC "-//W3C//DTD SVG 20010904//EN"
 "http://www.w3.org/TR/2001/REC-SVG-20010904/DTD/svg10.dtd">
<svg version="1.0" xmlns="http://www.w3.org/2000/svg"
 width="400.000000pt" height="400.000000pt" viewBox="0 0 400.000000 400.000000"
 preserveAspectRatio="xMidYMid meet">

<g transform="translate(0.000000,400.000000) scale(0.100000,-0.100000)"
fill="#000000" stroke="none">
<path d="M817 3174 c-4 -4 -7 -106 -7 -226 l0 -218 63 0 62 0 -4 160 -3 160
171 0 171 0 0 63 0 62 -223 3 c-122 2 -225 0 -230 -4z"/>
<path d="M2717 3174 c-4 -4 -7 -33 -7 -65 l0 -59 163 -2 162 -3 3 -163 c2
-144 4 -163 18 -158 9 3 36 6 60 6 l44 0 -2 221 -3 220 -215 5 c-118 3 -218 2
-223 -2z"/>
<path d="M1246 2724 c-7 -17 -8 -308 -2 -315 2 -2 30 -2 61 -1 l56 4 -3 106
-3 107 110 5 110 5 3 53 3 52 -164 0 c-141 0 -166 -2 -171 -16z"/>
<path d="M2397 2733 c-4 -3 -7 -28 -7 -54 l0 -48 113 -3 112 -3 3 -107 3 -108
49 0 50 0 0 165 0 165 -158 0 c-87 0 -162 -3 -165 -7z"/>
<path d="M1739 2342 l-87 -3 -5 -32 c-2 -17 -5 -64 -6 -103 -2 -68 -1 -72 23
-78 47 -12 56 0 56 75 l0 69 75 0 75 0 0 35 c0 19 -4 35 -9 35 -5 0 -15 1 -23
3 -7 1 -52 1 -99 -1z"/>
<path d="M2120 2311 c0 -27 2 -28 56 -34 31 -3 61 -10 66 -15 6 -6 8 -37 6
-71 l-3 -61 37 0 36 0 4 63 c1 34 1 81 -1 105 l-3 42 -99 0 -99 0 0 -29z"/>
<path d="M1648 1778 c-3 -57 -3 -109 0 -116 3 -9 29 -12 91 -11 123 1 133 5
129 43 l-3 31 -72 3 -72 3 -3 72 -3 72 -31 3 -31 3 -5 -103z"/>
<path d="M2279 1873 c-20 -5 -29 -33 -29 -95 l0 -48 -49 0 c-67 0 -81 -7 -81
-41 0 -29 0 -29 63 -29 34 0 79 -3 100 -6 l38 -7 -3 113 c-3 112 -6 122 -39
113z"/>
<path d="M1247 1593 c-4 -3 -7 -80 -7 -170 l0 -163 164 0 c119 0 166 3 173 13
5 6 9 30 9 52 l-1 40 -115 5 -115 5 -2 100 c-1 55 -2 106 -2 113 -1 13 -92 18
-104 5z"/>
<path d="M2633 1594 c-9 -4 -13 -37 -13 -115 l0 -108 -112 -3 -113 -3 0 -50 0
-50 163 -3 162 -2 -2 167 -3 168 -35 2 c-19 1 -41 0 -47 -3z"/>
<path d="M812 1053 l3 -228 228 0 228 0 -3 65 -3 65 -151 1 c-84 1 -160 4
-169 8 -15 5 -16 23 -14 158 l3 153 -62 3 -62 3 2 -228z"/>
<path d="M3045 1268 c-3 -7 -6 -80 -7 -161 l-3 -149 -156 1 -156 2 -7 -62 c-3
-34 -4 -64 -2 -66 2 -3 103 -7 225 -10 l221 -6 0 231 0 232 -55 0 c-35 0 -57
-5 -60 -12z"/>
</g>
</svg>
